<?xml version="1.0" encoding="utf-8"?>
<!-- Generator: Adobe Illustrator 26.0.1, SVG Export Plug-In . SVG Version: 6.00 Build 0)  -->
<svg version="1.1" id="Capa_1" xmlns="http://www.w3.org/2000/svg" xmlns:xlink="http://www.w3.org/1999/xlink" x="0px" y="0px"
	 viewBox="0 0 1920 1080" style="enable-background:new 0 0 1920 1080;" xml:space="preserve">
<style type="text/css">
	.st0{fill:#D8261C;}
</style>
<g>
	<g>
		<path class="st0" d="M509.7,442.1c3.5-1.6,7.2-2.9,11-3.6c12-1.5,28.3,1.5,37.3,5.5c10,4.4,19.1,10.2,27.6,17
			c12.5,9.9,23.5,21.1,33.2,33.7c0.5,0.7,1,0.9,1.9,0.9c10.3,0,20.6,0,30.9,0c0.4,0,0.8-0.1,1.4-0.1c-1.2-1.8-2.3-3.3-3.4-4.8
			c-12.8-17.8-27.7-33.4-46-45.7c-11.3-7.6-23.5-13.5-36.8-16.7c-8.6-2.1-17.3-2.9-26.1-1.8c-4.5,0.5-7.7,1.5-8.4,1.7
			c-7.2,2-13.7,5.5-19.4,10.3c-1.3,1.1-2.6,2.4-3.9,3.5C509.4,442.2,509.6,442.2,509.7,442.1z"/>
		<path d="M486.5,495.8c8.3,0,16.5,0,24.8,0c1,0,1.3-0.2,1.3-1.3c-0.2-4.4,0.1-8.7,1.1-12.9c2.5-10.8,9.8-17.3,20.1-19.6
			c6.3-1.4,12.7-1,19,0.2c5.5,1.1,10.9,2.9,16.1,5c0.3,0.1,2.6,1.2,2.9,1.3c0.7,0.3,4.2,1.9,5,2.4c4.6,2.7,9.2,5.3,13.7,8.2
			c2.7,1.7,5.1,3.7,7.9,5.7c-0.4-0.5-0.5-0.7-0.7-0.9c-7.6-7.5-15.8-14.4-24.8-20.3c-8.9-5.9-18.2-10.7-28.5-13.7
			c-9.6-2.8-19.3-4-29.2-2.5c-11.4,1.8-19.6,7.8-24.2,18.4c0.1,0.4-1.6,3.3-2,4.4c-2.7,7.8-3.8,16-3.9,24.3
			C485.2,495.5,485.5,495.8,486.5,495.8z"/>
		<path class="st0" d="M624,633.2c-5.6,3.8-11.6,6.4-18.2,7.4c-7.5,1.1-14.8,0.4-22.1-1.4c-7.7-1.9-14.9-5-21.8-8.9
			c-9.6-5.4-18.2-12.1-26.3-19.6c-0.3-0.3-0.6-0.6-1-0.9c-0.3-0.3-0.7-0.6-1-0.8c0,0.3,0,0.4,0.1,0.6c6.8,8.8,14.7,16.5,23.7,23.1
			c13.6,10,28.4,17.2,45.2,20c7.1,1.2,14.2,1.3,21.3,0.1c10.7-1.8,19.9-6.4,27.7-13.9c7.5-7.2,12.7-15.9,16.1-25.7
			c0.5-1.5,0.9-3,1.3-4.5c-3.3,0-23-0.1-25.2-0.1c-0.8,0-1.2,0.3-1.5,1c-0.6,1.4-1.3,2.7-2,4.1l0,0l0,0
			C640.4,613.7,634.4,626.1,624,633.2z"/>
		<path d="M546,609.3c10.4,9.9,21.9,18.3,35.6,23.3c7.7,2.8,15.7,4.1,23.9,3.2c9.3-1,16.9-5.1,22.6-12.5c0.3-0.3,0.5-0.7,0.6-1
			c-2.6,0.4-5.2,1-7.7,1.1c-9.2,0.5-17.7-2.1-25.8-6.1c-7.6-3.7-14.4-8.6-20.8-14.2c-1.3-1.1-2.5-2.2-3.7-3.4c0-0.1,0.1-0.2,0.1-0.3
			c0.4,0,0.9,0,1.3,0c8.4,0,16.9,0,25.3,0c1.1,0,1.5-0.3,1.7-1.4c0.7-3.8,1.4-7.6,2.2-11.4c0.3-1.3,1-5.1,1.1-6
			c0.6-3.1,1.2-6.2,1.7-9.4c0.2-1,0.6-1.3,1.6-1.3c4.2,0,8.3,0,12.5,0c0.1,0,1.3,0,2.7,0c5.6,0,11.2,0.1,16.8,0
			c6.9-0.1,13.4-1.8,19-5.7c13.5-9.3,20-22.1,17.7-38.6c-1.1-7.6-5.1-13.4-12-17.2c-4.9-2.7-10.3-3.5-15.8-3.5c-15.5,0-31,0-46.5,0
			c-4.1,0-8.2,0-12.3,0c-0.6,0-1.2-0.1-1.4,0.9c-1.2,6.4-2.4,12.7-3.6,19.1c-0.2,1.3-0.4,2.5-0.7,4c0.6,0,1.1,0,1.5,0
			c6.9,0,13.8,0,20.7,0c8.7,0,17.5-0.1,26.2-0.1c4,0,8.1-0.1,12.1,0.2c3.9,0.3,6.2,3.8,5.3,7.5c-1.3,5.4-5.3,8.5-10.8,8.5
			c-18.9,0.1-37.8,0.2-56.7,0.3c-1,0-1.4,0.3-1.6,1.3c-1.1,6-2.2,12-3.4,18c-2,10.9-4.1,21.7-6.1,32.6c-0.1,0.3-0.2,0.7-0.4,1.2
			c-9.3-9.1-17.3-18.9-24.5-29.7c0.6-0.2,1-0.3,1.3-0.5c3.4-1.1,6.6-2.6,9.5-4.6c6.6-4.6,11.3-10.7,14.4-18c0.7-1.8,1.3-3.6,1.9-5.4
			c0.1-0.3,0.7-2.4,0.8-3.2c0.7-4.7,0.9-9.3-0.1-13.9c-1.3-5.8-4.1-10.7-9.2-14c-4.2-2.7-9-3.7-13.9-3.8c-6.6-0.1-13.3,0-19.9,0
			c-15.2,0-30.5,0-45.7,0c-0.8,0-1.2,0.3-1.3,1.1c-1,4.6-2.1,9.1-3.2,13.6c-0.7,2.9-1.4,5.8-2.1,8.9c0.8,0,1.5,0,2.2,0
			c20.2,0,40.4,0,60.6,0c1,0,2.1,0.1,3.1,0.4c3.9,1,5.8,4.5,4.6,8.2c-1.5,4.7-5.5,7.6-10.4,7.7c-3.3,0-6.5,0-9.8,0
			c-12.1,0-50.3,0-53.7,0.1c-0.3,0-0.6,0.6-0.7,1c-0.5,1.8-0.9,3.7-1.3,5.5c-1.4,5.8-2.8,11.7-4.2,17.5c-1.9,8-3.8,15.9-5.6,23.9
			c-0.5,2.1-1,4.2-1.4,6.3c0.3,0.1,0.4,0.2,0.4,0.2c9.1,0,18.1,0,27.2-0.1c0.4,0,0.9-0.5,1-0.9c0.8-3.2,1.6-6.5,2.4-9.7
			c1.4-5.9,2.8-11.8,4.1-17.7c0.2-0.8,0.5-1.1,1.4-1.1c5.7,0,11.4,0,17,0c0.8,0,1.3,0.3,1.7,1C524,585,534,597.9,546,609.3z"/>
		<path d="M486.3,545.1"/>
		<g>
			<path d="M724,638.5c1.7,1,4.2,1.9,6.8,1.9c3.9,0,6.1-2,6.1-5c0-2.7-1.6-4.3-5.5-5.8c-4.8-1.7-7.7-4.2-7.7-8.3c0-4.6,3.8-8,9.5-8
				c3,0,5.2,0.7,6.5,1.4l-1,3.1c-1-0.5-2.9-1.4-5.6-1.4c-4,0-5.5,2.4-5.5,4.4c0,2.7,1.8,4.1,5.8,5.7c5,1.9,7.5,4.3,7.5,8.6
				c0,4.5-3.4,8.4-10.3,8.4c-2.8,0-5.9-0.8-7.5-1.9L724,638.5z"/>
			<path d="M765.2,632.4c0,7.8-5.4,11.2-10.5,11.2c-5.7,0-10.1-4.2-10.1-10.8c0-7,4.6-11.2,10.4-11.2
				C761.1,621.6,765.2,626,765.2,632.4z M748.5,632.6c0,4.6,2.7,8.1,6.4,8.1s6.4-3.4,6.4-8.2c0-3.6-1.8-8.1-6.3-8.1
				C750.4,624.5,748.5,628.6,748.5,632.6z"/>
			<path d="M770,612.2h3.8v30.9H770V612.2z"/>
			<path d="M797.9,637.4c0,2.2,0,4.1,0.2,5.7h-3.4l-0.2-3.4h-0.1c-1,1.7-3.2,3.9-7,3.9c-3.3,0-7.3-1.8-7.3-9.2v-12.3h3.8v11.7
				c0,4,1.2,6.7,4.7,6.7c2.6,0,4.4-1.8,5-3.5c0.2-0.6,0.3-1.3,0.3-2v-12.9h3.8v15.3H797.9z"/>
			<path d="M819.3,642.3c-1,0.5-3.2,1.2-6,1.2c-6.4,0-10.5-4.3-10.5-10.7c0-6.5,4.4-11.2,11.3-11.2c2.3,0,4.3,0.6,5.3,1.1l-0.9,3
				c-0.9-0.5-2.3-1-4.4-1c-4.8,0-7.4,3.6-7.4,8c0,4.9,3.1,7.9,7.3,7.9c2.2,0,3.6-0.6,4.7-1L819.3,642.3z"/>
			<path d="M828,616.1c0,1.3-0.9,2.4-2.4,2.4c-1.3,0-2.3-1-2.3-2.4c0-1.3,1-2.4,2.4-2.4C827.1,613.7,828,614.8,828,616.1z
				 M823.8,643.1V622h3.8v21.1H823.8z"/>
			<path d="M853,632.4c0,7.8-5.4,11.2-10.5,11.2c-5.7,0-10.1-4.2-10.1-10.8c0-7,4.6-11.2,10.4-11.2C848.9,621.6,853,626,853,632.4z
				 M836.3,632.6c0,4.6,2.7,8.1,6.4,8.1s6.4-3.4,6.4-8.2c0-3.6-1.8-8.1-6.3-8.1C838.3,624.5,836.3,628.6,836.3,632.6z"/>
			<path d="M857.9,627.8c0-2.2,0-4-0.2-5.7h3.4l0.2,3.5h0.1c1-2,3.5-4,7-4c2.9,0,7.4,1.7,7.4,9v12.6H872V631c0-3.4-1.3-6.2-4.9-6.2
				c-2.5,0-4.5,1.8-5.1,3.9c-0.2,0.5-0.3,1.1-0.3,1.8v12.7h-3.8V627.8z"/>
			<path d="M884.1,633.3c0.1,5.2,3.4,7.3,7.2,7.3c2.7,0,4.4-0.5,5.8-1.1l0.7,2.7c-1.3,0.6-3.7,1.3-7,1.3c-6.5,0-10.4-4.3-10.4-10.6
				s3.7-11.4,9.9-11.4c6.9,0,8.7,6,8.7,9.9c0,0.8-0.1,1.4-0.1,1.8L884.1,633.3L884.1,633.3z M895.4,630.5c0-2.4-1-6.2-5.3-6.2
				c-3.9,0-5.6,3.6-5.9,6.2H895.4z"/>
			<path d="M903.3,639.2c1.1,0.7,3.1,1.5,5,1.5c2.8,0,4.1-1.4,4.1-3.1c0-1.8-1.1-2.8-3.9-3.9c-3.8-1.3-5.6-3.4-5.6-6
				c0-3.4,2.7-6.2,7.3-6.2c2.1,0,4,0.6,5.2,1.3l-1,2.8c-0.8-0.5-2.3-1.2-4.3-1.2c-2.3,0-3.5,1.3-3.5,2.9c0,1.7,1.3,2.5,4,3.6
				c3.7,1.4,5.5,3.2,5.5,6.4c0,3.7-2.9,6.3-7.9,6.3c-2.3,0-4.4-0.6-5.9-1.4L903.3,639.2z"/>
			<path d="M934.5,616.1c0,1.3-0.9,2.4-2.4,2.4c-1.3,0-2.3-1-2.3-2.4c0-1.3,1-2.4,2.4-2.4C933.6,613.7,934.5,614.8,934.5,616.1z
				 M930.3,643.1V622h3.8v21.1H930.3z"/>
			<path d="M940.5,627.8c0-2.2,0-4-0.2-5.7h3.4l0.2,3.5h0.1c1-2,3.5-4,7-4c2.9,0,7.4,1.7,7.4,9v12.6h-3.8V631c0-3.4-1.3-6.2-4.9-6.2
				c-2.5,0-4.5,1.8-5.1,3.9c-0.2,0.5-0.3,1.1-0.3,1.8v12.7h-3.8L940.5,627.8L940.5,627.8z"/>
			<path d="M965,643.1V625h-3v-2.9h3v-1c0-3,0.7-5.7,2.4-7.4c1.4-1.4,3.4-2,5.1-2c1.3,0,2.5,0.3,3.3,0.6l-0.5,3
				c-0.6-0.3-1.3-0.5-2.4-0.5c-3.3,0-4.1,2.9-4.1,6.1v1.1h5.1v2.9h-5.1V643H965V643.1z"/>
			<path d="M995.8,632.4c0,7.8-5.4,11.2-10.5,11.2c-5.7,0-10.1-4.2-10.1-10.8c0-7,4.6-11.2,10.4-11.2
				C991.7,621.6,995.8,626,995.8,632.4z M979.1,632.6c0,4.6,2.7,8.1,6.4,8.1s6.4-3.4,6.4-8.2c0-3.6-1.8-8.1-6.3-8.1
				C981.1,624.5,979.1,628.6,979.1,632.6z"/>
			<path d="M1000.6,628.6c0-2.5,0-4.6-0.2-6.6h3.4l0.1,4.1h0.2c1-2.8,3.3-4.6,5.8-4.6c0.4,0,0.7,0,1.1,0.1v3.6
				c-0.4-0.1-0.8-0.1-1.3-0.1c-2.7,0-4.6,2-5.1,4.9c-0.1,0.5-0.2,1.1-0.2,1.8V643h-3.8V628.6z"/>
			<path d="M1015.1,627.8c0-2.2,0-4-0.2-5.7h3.4l0.2,3.4h0.1c1.2-2,3.1-3.9,6.6-3.9c2.9,0,5,1.7,6,4.2h0.1c0.7-1.2,1.5-2.1,2.3-2.7
				c1.3-1,2.7-1.5,4.7-1.5c2.8,0,6.9,1.8,6.9,9.1v12.4h-3.7v-11.9c0-4-1.5-6.5-4.6-6.5c-2.2,0-3.9,1.6-4.5,3.5
				c-0.2,0.5-0.3,1.2-0.3,1.9v13h-3.7v-12.6c0-3.4-1.5-5.8-4.4-5.8c-2.4,0-4.1,1.9-4.7,3.8c-0.2,0.6-0.3,1.2-0.3,1.9v12.7h-3.7
				v-15.3H1015.1z"/>
			<path d="M1063,643.1l-0.3-2.7h-0.1c-1.2,1.7-3.4,3.1-6.4,3.1c-4.3,0-6.4-3-6.4-6c0-5.1,4.5-7.9,12.7-7.8v-0.4
				c0-1.7-0.5-4.9-4.8-4.9c-2,0-4,0.6-5.5,1.6l-0.9-2.5c1.7-1.1,4.3-1.9,6.9-1.9c6.4,0,8,4.4,8,8.6v7.9c0,1.8,0.1,3.6,0.3,5
				L1063,643.1L1063,643.1z M1062.4,632.4c-4.2-0.1-8.9,0.7-8.9,4.7c0,2.5,1.7,3.7,3.6,3.7c2.7,0,4.5-1.7,5.1-3.5
				c0.1-0.4,0.2-0.8,0.2-1.2L1062.4,632.4L1062.4,632.4z M1064.4,613l-5.3,6.2h-2.7l3.8-6.2H1064.4z"/>
			<path d="M1076.8,616v6h5.5v2.9h-5.5v11.4c0,2.6,0.7,4.1,2.9,4.1c1,0,1.7-0.1,2.2-0.3l0.2,2.9c-0.7,0.3-1.9,0.5-3.4,0.5
				c-1.8,0-3.2-0.6-4.1-1.6c-1.1-1.1-1.5-3-1.5-5.5V625h-3.3v-2.9h3.3v-5L1076.8,616z"/>
			<path d="M1090.8,616.1c0,1.3-0.9,2.4-2.4,2.4c-1.3,0-2.3-1-2.3-2.4c0-1.3,1-2.4,2.4-2.4C1089.9,613.7,1090.8,614.8,1090.8,616.1z
				 M1086.6,643.1V622h3.8v21.1H1086.6z"/>
			<path d="M1111.8,642.3c-1,0.5-3.2,1.2-6,1.2c-6.4,0-10.5-4.3-10.5-10.7c0-6.5,4.4-11.2,11.3-11.2c2.3,0,4.3,0.6,5.3,1.1l-0.9,3
				c-0.9-0.5-2.3-1-4.4-1c-4.8,0-7.4,3.6-7.4,8c0,4.9,3.1,7.9,7.3,7.9c2.2,0,3.6-0.6,4.7-1L1111.8,642.3z"/>
			<path d="M1127.9,643.1l-0.3-2.7h-0.1c-1.2,1.7-3.4,3.1-6.4,3.1c-4.3,0-6.4-3-6.4-6c0-5.1,4.5-7.9,12.7-7.8v-0.4
				c0-1.7-0.5-4.9-4.8-4.9c-2,0-4,0.6-5.5,1.6l-0.9-2.5c1.7-1.1,4.3-1.9,6.9-1.9c6.4,0,8,4.4,8,8.6v7.9c0,1.8,0.1,3.6,0.3,5
				L1127.9,643.1L1127.9,643.1z M1127.3,632.4c-4.2-0.1-8.9,0.7-8.9,4.7c0,2.5,1.7,3.7,3.6,3.7c2.7,0,4.5-1.7,5.1-3.5
				c0.1-0.4,0.2-0.8,0.2-1.2L1127.3,632.4L1127.3,632.4z"/>
			<path d="M1136.7,639.2c1.1,0.7,3.1,1.5,5,1.5c2.8,0,4.1-1.4,4.1-3.1c0-1.8-1.1-2.8-3.9-3.9c-3.8-1.3-5.6-3.4-5.6-6
				c0-3.4,2.7-6.2,7.3-6.2c2.1,0,4,0.6,5.2,1.3l-1,2.8c-0.8-0.5-2.3-1.2-4.3-1.2c-2.3,0-3.5,1.3-3.5,2.9c0,1.7,1.3,2.5,4,3.6
				c3.7,1.4,5.5,3.2,5.5,6.4c0,3.7-2.9,6.3-7.9,6.3c-2.3,0-4.4-0.6-5.9-1.4L1136.7,639.2z"/>
		</g>
	</g>
	<g>
		<path d="M709.8,571.5l23.7-4.3c2,6.7,7.1,10.1,15.4,10.1c6.4,0,9.6-1.7,9.6-5.1c0-1.8-0.7-3.2-2.2-4.2c-1.5-1-4.1-1.9-8-2.7
			c-14.6-2.8-24-6.5-28.1-11c-4.1-4.5-6.2-9.8-6.2-15.9c0-7.9,3-14.4,8.9-19.6c6-5.2,14.5-7.8,25.7-7.8c17,0,28.2,6.8,33.6,20.4
			l-21.2,6.4c-2.2-5.6-6.7-8.4-13.4-8.4c-5.6,0-8.4,1.7-8.4,5.2c0,1.5,0.6,2.7,1.9,3.6c1.3,0.9,3.7,1.7,7.3,2.4
			c10,2.1,17,4,21.2,5.6c4.2,1.6,7.7,4.4,10.5,8.3c2.8,3.9,4.2,8.6,4.2,13.9c0,8.4-3.4,15.3-10.3,20.5c-6.8,5.2-15.8,7.8-26.9,7.8
			C727.1,596.9,714.5,588.5,709.8,571.5z"/>
		<path d="M830.3,596.9c-11.7,0-21.3-3.9-28.7-11.7s-11.1-18.2-11.1-31.2c0-12.4,3.5-22.7,10.6-30.8c7.1-8.1,16.9-12.2,29.4-12.2
			c11.6,0,21,3.8,28.3,11.5c7.3,7.6,11,17.9,11,30.6c0,13.2-3.7,23.8-11,31.8C851.4,592.9,841.9,596.9,830.3,596.9z M830.2,578
			c4.3,0,7.4-1.9,9.3-5.6c1.9-3.8,2.8-10.6,2.8-20.7c0-14.5-3.9-21.7-11.7-21.7c-8.4,0-12.6,8.3-12.6,24.8
			C818.1,570.3,822.1,578,830.2,578z"/>
		<path d="M939,575.2v20.4h-58.4v-83.3h25.6v62.9H939z"/>
		<path d="M1014.9,512.3v55.2c0,10.5-3.1,18-9.3,22.5c-6.2,4.6-14.3,6.9-24.3,6.9c-10.5,0-18.9-2.2-25.3-6.6
			c-6.4-4.4-9.6-11.6-9.6-21.5v-56.5h26v53.5c0,4,0.8,6.9,2.5,8.7c1.7,1.8,4.4,2.7,8.1,2.7c3.1,0,5.6-0.7,7.6-2
			c2-1.3,3.1-2.8,3.5-4.5c0.4-1.7,0.6-4.9,0.6-9.8v-48.8H1014.9z"/>
		<path d="M1062.8,532.3v63.3h-24.2v-63.3h-17.3v-20h58.8v20H1062.8z"/>
		<path d="M1112.9,512.3v83.3h-25.6v-83.3H1112.9z"/>
		<path d="M1163.4,596.9c-11.7,0-21.3-3.9-28.7-11.7c-7.4-7.8-11.1-18.2-11.1-31.2c0-12.4,3.5-22.7,10.6-30.8
			c7.1-8.1,16.9-12.2,29.4-12.2c11.6,0,21,3.8,28.3,11.5c7.3,7.6,11,17.9,11,30.6c0,13.2-3.7,23.8-11,31.8
			C1184.6,592.9,1175.1,596.9,1163.4,596.9z M1163.3,578c4.3,0,7.4-1.9,9.3-5.6c1.9-3.8,2.8-10.6,2.8-20.7
			c0-14.5-3.9-21.7-11.7-21.7c-8.4,0-12.6,8.3-12.6,24.8C1151.2,570.3,1155.3,578,1163.3,578z"/>
		<path d="M1285,595.6h-20.8l-22.8-36.8c-2.9-4.7-5.9-10.5-8.9-17.2c1.3,5.4,2,9.9,2,13.7v40.3h-20.7v-83.3h24.2l19.4,30.5
			c3.9,6.1,6.8,11.4,8.8,16c-1.3-7.1-2-14.4-2-21.8v-24.7h20.8V595.6z"/>
		<path d="M1290.9,571.5l23.7-4.3c2,6.7,7.1,10.1,15.4,10.1c6.4,0,9.6-1.7,9.6-5.1c0-1.8-0.7-3.2-2.2-4.2c-1.5-1-4.1-1.9-8-2.7
			c-14.6-2.8-24-6.5-28.1-11c-4.1-4.5-6.2-9.8-6.2-15.9c0-7.9,3-14.4,8.9-19.6c6-5.2,14.5-7.8,25.7-7.8c17,0,28.2,6.8,33.6,20.4
			l-21.2,6.4c-2.2-5.6-6.7-8.4-13.4-8.4c-5.6,0-8.4,1.7-8.4,5.2c0,1.5,0.6,2.7,1.9,3.6s3.7,1.7,7.3,2.4c10,2.1,17,4,21.2,5.6
			c4.2,1.6,7.7,4.4,10.5,8.3c2.8,3.9,4.2,8.6,4.2,13.9c0,8.4-3.4,15.3-10.3,20.5c-6.8,5.2-15.8,7.8-26.9,7.8
			C1308.2,596.9,1295.7,588.5,1290.9,571.5z"/>
	</g>
</g>
</svg>
